<svg width="98" height="79" viewBox="0 0 98 79" fill="none" xmlns="http://www.w3.org/2000/svg">
<g clip-path="url(#clip0_167_204)">
<path d="M59.5327 24.439C59.6534 24.4449 59.7728 24.4114 59.8749 24.3432C59.977 24.2749 60.0567 24.1752 60.1033 24.0574C60.1499 23.9397 60.1612 23.8097 60.1355 23.685C60.1098 23.5603 60.0484 23.447 59.9597 23.3604C59.9448 23.298 59.9342 23.2532 59.9193 23.1909C59.9247 23.1773 59.93 23.1637 59.9354 23.1502C60.4778 21.784 62.3162 21.7934 62.8541 23.1616C63.3314 24.376 63.9392 25.5924 64.0889 26.8763C64.1548 27.4438 64.127 28.0192 64.0067 28.5767C65.1279 25.9934 65.7101 23.1858 65.7139 20.3441C65.7141 19.631 65.6766 18.9185 65.6015 18.2098C65.5394 17.6288 65.4534 17.052 65.3432 16.4793C64.7423 13.372 63.452 10.4595 61.5784 7.98107C60.6716 7.45849 59.9383 6.65487 59.4772 5.67851C59.3102 5.32754 59.1921 4.95288 59.1267 4.56619C59.229 4.58036 59.5124 2.93489 59.4353 2.83394C59.5778 2.60546 59.833 2.49188 59.9887 2.26893C60.763 1.16012 61.8298 1.35372 62.3867 2.86052C63.5765 3.49471 63.588 4.54649 62.858 5.55806C62.3935 6.20162 62.3297 7.07244 61.9222 7.76143C61.9641 7.81811 62.0078 7.87302 62.0497 7.92971C62.8161 8.97055 63.484 10.0882 64.044 11.2667C63.8855 9.95965 64.1194 8.38503 64.5182 7.37001C64.9721 6.2135 65.8228 5.23948 66.572 4.23968C67.4719 3.03877 69.3173 3.56287 69.4758 5.08522C69.4774 5.09996 69.4789 5.11469 69.4803 5.12942C69.369 5.19573 69.2601 5.26611 69.1535 5.34056C69.0196 5.43505 68.9159 5.57004 68.8559 5.72787C68.7959 5.88569 68.7824 6.05899 68.8172 6.22504C68.8521 6.39109 68.9336 6.54215 69.0511 6.65844C69.1686 6.77472 69.3166 6.85081 69.4758 6.87672L69.4921 6.87937C69.4524 7.30298 69.3823 7.72279 69.2824 8.13517C70.2436 12.061 68.1686 13.4908 65.2057 13.5551C65.1403 13.5905 65.0766 13.6259 65.0112 13.6596C65.5738 15.3435 65.9267 17.0975 66.061 18.8775C66.137 19.9277 66.1325 20.9826 66.0476 22.032L66.0526 21.9949C66.2673 20.8279 66.8566 19.775 67.7212 19.0139C69.0053 17.8998 70.8194 17.4896 72.2047 16.594C72.8715 16.163 73.726 16.72 73.6097 17.5366C73.6078 17.5496 73.6059 17.5627 73.604 17.5757C73.3975 17.6645 73.1964 17.7669 73.002 17.8821C72.8907 17.9484 72.7818 18.0188 72.6752 18.0932C72.5413 18.1877 72.4375 18.3227 72.3775 18.4806C72.3175 18.6384 72.304 18.8117 72.3389 18.9777C72.3737 19.1438 72.4552 19.2948 72.5727 19.4111C72.6902 19.5274 72.8383 19.6035 72.9974 19.6294L73.0137 19.6321C73.0255 19.6338 73.0355 19.6356 73.0472 19.6374C72.6944 20.5272 72.1992 21.3462 71.5833 22.0586C70.9823 25.4857 68.4011 25.8108 65.6401 24.8128H65.6384C65.3355 26.2032 64.8965 27.5566 64.3287 28.8512H59.6499C59.6331 28.7963 59.6181 28.7396 59.603 28.6847C60.036 28.7134 60.4708 28.6861 60.8976 28.6032C60.5505 28.1533 60.2033 27.6999 59.8562 27.25C59.8484 27.2416 59.8412 27.2327 59.8344 27.2234C59.6583 26.9932 59.4805 26.7647 59.3045 26.5345L59.3044 26.5342C59.295 25.8284 59.3717 25.1242 59.5325 24.4391L59.5327 24.439Z" fill="#F2F2F2"/>
<path d="M74.5546 11.7923C73.6846 8.44225 80.7013 5.56954 82.5438 8.26731C82.8 7.88377 83.7469 7.6508 84.1813 7.76846C84.6158 7.88611 84.9812 8.18025 85.3376 8.46498C85.8278 8.86266 86.3357 9.27445 86.6365 9.84625C86.9395 10.4157 86.9863 11.1922 86.5786 11.6864C86.2555 12.0793 85.302 12.3335 84.8163 12.437C84.4777 12.51 84.1925 12.5688 83.9474 12.6111C83.7248 12.2724 83.6223 11.8617 83.6578 11.4511C83.4928 11.5686 83.3546 11.7232 83.2529 11.9038C83.1512 12.0845 83.0886 12.2867 83.0696 12.4958C83.0629 12.5829 85.8077 23.2495 85.8077 23.2495C85.4779 23.4478 85.131 23.6124 84.7717 23.7413C84.0609 22.5939 83.5165 21.3408 83.1565 20.0234C83.0738 20.9043 83.0842 21.7922 83.1877 22.6707C83.2427 23.1632 83.3216 23.6525 83.4239 24.1366C80.1622 24.8802 75.2564 24.6355 73.122 21.4729C73.1216 21.4598 73.1213 21.4468 73.1209 21.4336C73.1193 21.3088 73.0766 21.1885 73.0002 21.0932C72.9237 20.998 72.8183 20.9338 72.702 20.9116C72.5857 20.8894 72.4657 20.9107 72.3625 20.9717C72.2594 21.0327 72.1796 21.1296 72.1367 21.246C72.0849 21.3855 72.0372 21.5063 71.9947 21.6023C71.3731 19.2539 72.1774 16.5361 74.5546 11.7923Z" fill="#2F2E41"/>
<path d="M69.0045 67.9565V68.0663C69.0001 68.0298 69.0001 67.993 69.0045 67.9565Z" fill="#2F2E41"/>
<path d="M72.1985 48.9976C72.2814 48.9739 72.3659 48.9566 72.4512 48.9458C72.3532 48.9627 72.269 48.9799 72.1985 48.9976Z" fill="#2F2E41"/>
<path d="M72.1245 49.0181C72.1471 49.0113 72.1723 49.0045 72.1991 48.9977C72.1742 49.0047 72.1502 49.0098 72.1245 49.0181Z" fill="#2F2E41"/>
<path d="M95.7232 78.9339H83.7676C83.5971 78.7901 83.4785 78.5888 83.4319 78.3636C83.3853 78.1384 83.4135 77.9032 83.5116 77.6973C83.8383 76.9062 83.1982 76.1833 83.1982 76.1833C82.981 75.9144 82.8299 75.5931 82.7585 75.2478C82.687 74.9025 82.6973 74.5439 82.7885 74.2038C83.1053 73.0353 81.8639 69.7372 81.8639 69.7372C81.8639 69.7372 81.1947 73.9959 80.3747 78.9339H69.0045C68.814 78.5913 68.7136 78.2011 68.7136 77.8037C68.7136 77.4064 68.814 77.0162 69.0045 76.6735C69.6671 75.4869 69.0045 75.2593 69.0045 75.2593C69.0045 75.2593 68.3418 73.9314 69.0045 72.9672C69.6671 72.003 69.0045 68.0662 69.0045 68.0662C69.0294 68.2402 69.2182 67.9237 69.5088 67.2602C69.9513 66.2506 70.6275 64.4351 71.3107 62.3274C71.7991 60.8231 72.2915 59.1679 72.703 57.5497H72.704C72.8119 57.1246 72.9141 56.7033 73.0106 56.2859C73.1994 55.4673 73.3612 54.6719 73.484 53.925C73.7507 52.3162 73.8386 50.9343 73.6339 50.0355C73.4641 49.2875 73.0925 48.8751 72.4513 48.9458C72.7949 48.8856 73.2983 48.8287 73.9185 48.7749C74.0304 48.7654 74.1462 48.7559 74.2661 48.7453C78.8925 48.3761 88.8185 48.1641 88.8185 48.1641L91.8588 53.9144L95.7092 61.1986C95.7092 61.1986 95.6043 70.9703 95.7232 78.9339Z" fill="#2F2E41"/>
<path d="M82.9621 23.3099L75.9575 21.7406L74.5667 24.6974L69.8831 27.5613C69.8831 27.5613 72.9021 40.5989 72.8849 42.4325C72.8412 47.0879 65.7886 57.5239 71.1156 56.7211C76.4427 55.9182 77.5247 52.5554 79.2348 53.0871C80.7772 53.5667 82.6604 55.7 83.9211 54.1743C85.1819 52.6485 85.6259 54.4104 86.4232 54.4712C86.802 54.5002 86.5739 52.5446 87.5271 54.532C88.4803 56.5194 93.5351 53.8442 91.8219 52.0347C88.9686 49.0211 88.3887 26.8057 88.3887 26.8057L85.2124 25.7735L82.9621 23.3099Z" fill="#E6E6E6"/>
<path d="M69.7506 70.657C70.0321 70.3025 70.1715 69.846 70.1391 69.3847C70.1068 68.9234 69.9053 68.4935 69.5775 68.1867C69.5099 68.1255 69.4377 68.0702 69.3615 68.0216L70.5327 61.9507L67.8252 60.2393L67.0721 68.7387C66.9055 69.088 66.8531 69.4857 66.923 69.8698C66.9929 70.2539 67.1812 70.6028 67.4586 70.8619C67.6177 71.0078 67.8026 71.1191 68.0024 71.1895C68.2023 71.26 68.4134 71.2881 68.6236 71.2724C68.8338 71.2567 69.039 71.1974 69.2275 71.0979C69.416 70.9984 69.5841 70.8606 69.7222 70.6925C69.7318 70.6808 69.7413 70.669 69.7506 70.657Z" fill="#A0616A"/>
<path d="M78.1573 38.6572C78.1403 38.462 77.9046 38.3734 77.578 38.2511C77.2499 38.1443 76.9381 37.9884 76.6521 37.788C75.929 37.2362 76.2136 36.6592 76.6072 35.8617C76.6841 35.7066 76.764 35.5452 76.8389 35.3775C77.0616 34.8806 76.707 32.8309 75.7832 29.2843C75.4985 28.1924 75.4995 27.4213 75.3027 26.9096C75.107 26.398 74.7144 26.1459 73.6447 26.0931C72.3518 26.0242 71.0857 26.4995 70.124 27.4149C70.098 27.4392 70.0711 27.4656 70.0451 27.4909C69.9961 27.5394 69.9482 27.589 69.9013 27.6396C69.0119 28.5846 68.503 29.8562 68.481 31.1884L68.476 31.4152L68.2552 42.2513L67.635 51.7604L66.78 64.8593L67.4133 64.892L69.9402 65.0249L70.2468 65.0407L70.974 61.819L71.8489 57.9422L72.1705 56.518L73.1683 52.1L73.6338 50.0356L73.9184 48.7749L74.0343 48.2601L74.5996 45.7579C74.6126 45.7051 75.913 40.286 77.4122 39.3798C77.9715 39.0423 78.1733 38.846 78.1573 38.6572Z" fill="#E6E6E6"/>
<path d="M94.9782 70.5923C94.6624 70.2719 94.4774 69.8338 94.4626 69.3715C94.4478 68.9092 94.6045 68.459 94.8992 68.1168C94.9601 68.0482 95.0263 67.9851 95.0971 67.928L93.3154 62.0252L95.8332 60.0165L97.4462 68.3814C97.6474 68.7097 97.7399 69.0992 97.7095 69.489C97.679 69.8788 97.5273 70.247 97.2779 70.5361C97.1344 70.6992 96.962 70.8308 96.7704 70.9235C96.5789 71.0162 96.3719 71.0682 96.1613 71.0764C95.9507 71.0846 95.7407 71.0489 95.5431 70.9714C95.3456 70.8938 95.1645 70.776 95.0101 70.6245C94.9993 70.6139 94.9887 70.6032 94.9782 70.5923Z" fill="#A0616A"/>
<path d="M96.2098 57.7838C96.2098 57.7838 94.2461 50.4866 94.845 49.6967C95.4438 48.9067 93.6752 48.7524 94.4373 47.2812C95.1995 45.81 94.1475 45.5639 94.1475 45.5639L93.5766 42.1812L92.5561 33.8725L92.5251 33.6254L92.2283 31.2081C92.1454 30.5177 91.9315 29.852 91.5994 29.2509C91.2674 28.6498 90.824 28.1255 90.2957 27.7096C90.2687 27.6877 90.2412 27.6668 90.2136 27.6458C90.088 27.5503 89.9596 27.4618 89.8285 27.3803C88.8488 26.7699 87.6984 26.5391 86.5751 26.7276C84.4585 27.0758 85.1173 27.9094 84.774 30.1428C84.2161 33.7742 84.0714 35.8518 84.3434 36.3212C84.435 36.4793 84.5313 36.6305 84.6231 36.7757C85.0957 37.525 85.4373 38.0656 84.7741 38.6973C84.5098 38.9282 84.2158 39.1182 83.9008 39.2617C83.5891 39.4211 83.3635 39.5355 83.3665 39.7315C83.37 39.9213 83.5903 40.0928 84.1804 40.3646C84.8954 40.6951 85.6633 41.9446 86.2923 43.221C86.7913 44.2498 87.2364 45.3068 87.6256 46.3873L93.0317 62.4463L93.9135 65.0653L94.2177 65.0145L96.7156 64.5962L97.342 64.4915L96.2098 57.7838Z" fill="#E6E6E6"/>
<path d="M80.0069 21.6297C83.1631 21.6297 85.7216 18.9274 85.7216 15.5939C85.7216 12.2604 83.1631 9.55811 80.0069 9.55811C76.8508 9.55811 74.2922 12.2604 74.2922 15.5939C74.2922 18.9274 76.8508 21.6297 80.0069 21.6297Z" fill="#A0616A"/>
<path d="M71.4357 12.2628C70.5657 8.91283 77.5824 6.04012 79.4249 8.7379C79.6811 8.35435 80.628 8.12138 81.0624 8.23904C81.4969 8.35669 81.8623 8.65083 82.2187 8.93556C82.7089 9.33324 83.2168 9.74503 83.5176 10.3168C83.8206 10.8863 83.8674 11.6628 83.4597 12.157C83.1366 12.5499 82.1831 12.8041 81.6974 12.9076C81.3588 12.9805 81.0736 13.0394 80.8285 13.0817C80.6059 12.743 80.5034 12.3323 80.5389 11.9216C80.3739 12.0392 80.2357 12.1938 80.134 12.3744C80.0323 12.5551 79.9697 12.7572 79.9507 12.9664C79.944 13.0535 82.6888 23.7201 82.6888 23.7201C82.359 23.9183 82.0121 24.083 81.6528 24.2119C80.942 23.0645 80.3976 21.8114 80.0376 20.494C79.9549 21.3749 79.9653 22.2628 80.0688 23.1412C80.1238 23.6338 80.2027 24.1231 80.305 24.6072C77.0433 25.3508 72.1375 25.1061 70.0031 21.9435C70.0027 21.9304 70.0024 21.9173 70.002 21.9042C70.0004 21.7794 69.9577 21.6591 69.8812 21.5638C69.8048 21.4686 69.6994 21.4044 69.5831 21.3822C69.4668 21.36 69.3468 21.3813 69.2436 21.4423C69.1405 21.5033 69.0607 21.6002 69.0178 21.7166C68.966 21.8561 68.9183 21.9769 68.8758 22.0729C68.2542 19.7245 69.0585 17.0067 71.4357 12.2628Z" fill="#2F2E41"/>
<path d="M43.0943 33.1193C42.9736 33.1252 42.8541 33.0917 42.7521 33.0234C42.65 32.9552 42.5702 32.8554 42.5236 32.7377C42.477 32.62 42.4658 32.49 42.4915 32.3653C42.5172 32.2406 42.5785 32.1273 42.6673 32.0407C42.6821 31.9783 42.6928 31.9335 42.7076 31.8712C42.7023 31.8576 42.697 31.844 42.6916 31.8305C42.1491 30.4643 40.3107 30.4737 39.7729 31.8419C39.2955 33.0562 38.6878 34.2726 38.5381 35.5566C38.4722 36.1241 38.5 36.6994 38.6203 37.2569C37.4991 34.6737 36.9169 31.8661 36.9131 29.0244C36.9129 28.3113 36.9504 27.5988 37.0255 26.8901C37.0875 26.3091 37.1736 25.7323 37.2837 25.1596C37.8847 22.0523 39.1749 19.1398 41.0485 16.6614C41.9553 16.1388 42.6887 15.3352 43.1498 14.3588C43.3168 14.0078 43.4349 13.6332 43.5003 13.2465C43.398 13.2607 43.1146 11.6152 43.1917 11.5142C43.0491 11.2858 42.794 11.1722 42.6383 10.9492C41.864 9.84041 40.7972 10.034 40.2402 11.5408C39.0505 12.175 39.039 13.2268 39.769 14.2384C40.2334 14.8819 40.2972 15.7527 40.7048 16.4417C40.6628 16.4984 40.6192 16.5533 40.5773 16.61C39.8109 17.6508 39.143 18.7685 38.583 19.947C38.7414 18.64 38.5075 17.0653 38.1088 16.0503C37.6549 14.8938 36.8041 13.9198 36.0549 12.92C35.155 11.7191 33.3097 12.2432 33.1511 13.7655C33.1496 13.7803 33.1481 13.795 33.1467 13.8097C33.2579 13.876 33.3669 13.9464 33.4734 14.0209C33.6073 14.1153 33.7111 14.2503 33.7711 14.4082C33.8311 14.566 33.8446 14.7393 33.8097 14.9053C33.7749 15.0714 33.6934 15.2224 33.5759 15.3387C33.4584 15.455 33.3104 15.5311 33.1512 15.557L33.1349 15.5597C33.1746 15.9833 33.2446 16.4031 33.3445 16.8155C32.3834 20.7413 34.4584 22.1711 37.4212 22.2354C37.4866 22.2708 37.5504 22.3062 37.6158 22.3399C37.0532 24.0238 36.7003 25.7778 36.566 27.5578C36.49 28.608 36.4944 29.6629 36.5794 30.7123L36.5744 30.6751C36.3597 29.5082 35.7703 28.4553 34.9058 27.6942C33.6217 26.5801 31.8076 26.1699 30.4223 25.2743C29.7554 24.8433 28.9009 25.4003 29.0173 26.2169C29.0192 26.2299 29.0211 26.243 29.023 26.256C29.2295 26.3448 29.4306 26.4472 29.625 26.5624C29.7363 26.6287 29.8452 26.6991 29.9518 26.7735C30.0857 26.868 30.1894 27.003 30.2495 27.1609C30.3095 27.3187 30.3229 27.492 30.2881 27.658C30.2533 27.8241 30.1718 27.9751 30.0543 28.0914C29.9367 28.2077 29.7887 28.2838 29.6296 28.3097L29.6133 28.3124C29.6015 28.3141 29.5915 28.3159 29.5797 28.3177C29.9326 29.2075 30.4278 30.0265 31.0437 30.7389C31.6447 34.166 34.2259 34.4911 36.9869 33.4931H36.9886C37.2915 34.8835 37.7305 36.2369 38.2983 37.5315H42.977C42.9938 37.4766 43.0089 37.4199 43.024 37.365C42.5909 37.3937 42.1561 37.3664 41.7294 37.2835C42.0765 36.8336 42.4236 36.3802 42.7708 35.9303C42.7785 35.9219 42.7858 35.913 42.7926 35.9037C42.9687 35.6735 43.1464 35.445 43.3225 35.2148L43.3226 35.2145C43.332 34.5087 43.2553 33.8045 43.0944 33.1194L43.0943 33.1193Z" fill="#F2F2F2"/>
<path d="M21.2628 8.26746C21.1566 8.52883 17.8824 8.50082 17.7324 8.73355C16.5762 10.5304 20.7441 18.1754 19.5879 19.9745L19.4268 20.1773C19.804 19.9936 20.1664 19.7777 20.5102 19.5317C20.5411 18.7953 20.572 18.0565 20.6051 17.3201C20.9514 17.788 21.2309 18.307 21.4347 18.8605C21.7039 18.6601 21.9248 18.2886 23.0786 17.5578C23.5457 17.0158 24.0842 16.5476 24.6775 16.1676L21.2628 8.26746Z" fill="#2F2E41"/>
<path d="M23.6403 22.9933C23.279 22.7447 22.8668 22.5907 22.4378 22.5441C22.0088 22.4975 21.5755 22.5596 21.1738 22.7252C20.7722 22.8909 20.4137 23.1553 20.1281 23.4966C19.8426 23.8379 19.6382 24.2462 19.5319 24.6876L14.5562 38.3807L6.0036 33.2523C5.96604 32.6628 5.7527 32.1011 5.39417 31.6476C5.03565 31.1941 4.55035 30.8721 4.00788 30.728C3.46542 30.5838 2.89366 30.6248 2.37461 30.845C1.85556 31.0653 1.41588 31.4535 1.11864 31.954C0.821398 32.4545 0.681862 33.0415 0.720045 33.631C0.758228 34.2204 0.972169 34.7819 1.33118 35.235C1.6902 35.688 2.17584 36.0094 2.71845 36.1529C3.26107 36.2965 3.83279 36.2548 4.3516 36.0339C6.15272 38.0643 13.9612 46.3886 17.1938 43.1361C19.9111 40.4022 23.8323 29.8066 24.7762 26.1477C24.9274 25.5626 24.8989 24.942 24.6948 24.3751C24.4906 23.8082 24.1214 23.3244 23.6403 22.9933Z" fill="#FFB6B6"/>
<path d="M14.2976 43.7098L15.8678 51.2056L27.3494 52.3025L28.4046 45.7757L14.2976 43.7098Z" fill="#FFB6B6"/>
<path d="M31.8359 62.9318C31.8306 63.0392 31.8243 63.1456 31.817 63.2531C31.7069 64.8062 31.581 66.5975 31.4446 68.5605C31.2296 71.6756 30.9894 75.2228 30.7471 78.9339H6.66431L11.3349 64.1065C11.3349 64.1065 13.2208 63.0098 12.2607 61.1676C11.3006 59.3253 13.1897 60.7934 13.2073 58.1624C13.2249 55.5314 14.9178 52.7323 14.9178 52.7323L15.1957 48.7487L15.3541 48.752L27.8869 48.9724L28.1156 48.9769L28.5005 52.3966C30.8377 55.3341 32.03 59.1003 31.8359 62.9318Z" fill="#2F2E41"/>
<path d="M21.4636 19.3606L27.1785 19.0497L29.833 23.4797C29.833 23.4797 34.8274 24.3617 34.4812 30.5777C34.135 36.7937 28.4045 42.2483 28.4045 42.2483L28.6495 41.3612L28.224 42.6452L28.2786 43.3661L28.859 44.1296L28.9187 44.9192L28.4045 46.1685C28.4714 46.2817 28.5068 46.4124 28.5069 46.5458C28.507 46.6793 28.4717 46.81 28.405 46.9233C28.3382 47.0366 28.2428 47.1279 28.1294 47.1868C28.0161 47.2457 27.8894 47.2699 27.7637 47.2566L19.506 46.3825C19.318 45.8363 19.1671 45.1827 18.4135 46.2707L17.6356 46.1911L14.402 45.8602L14.2116 45.1279C14.1035 44.7118 14.0866 44.2751 14.1623 43.8511C14.2381 43.4271 14.4044 43.0269 14.6486 42.681C14.3677 41.7521 14.4413 40.744 14.8536 39.8715L14.8691 39.8387L15.2125 39.5364C15.2125 39.5364 11.4556 33.575 15.7684 29.0849L17.4994 25.9769L19.4362 23.4811L21.4636 19.3606Z" fill="#3FBF77"/>
<path d="M22.8859 16.7455C25.879 16.7455 28.3053 14.1829 28.3053 11.0216C28.3053 7.86041 25.879 5.29773 22.8859 5.29773C19.8929 5.29773 17.4666 7.86041 17.4666 11.0216C17.4666 14.1829 19.8929 16.7455 22.8859 16.7455Z" fill="#FFB6B6"/>
<path d="M27.0019 19.2674C26.5606 18.8779 26.2535 18.3454 26.1282 17.7526C26.0279 18.4724 26.0541 19.2055 26.2054 19.9153C25.9119 20.1483 25.6273 20.3697 25.3581 20.5702C25.1543 20.0166 24.8748 19.4976 24.5284 19.0297C24.4954 19.7661 24.4645 20.5049 24.4336 21.2413C24.0897 21.4874 23.7274 21.7033 23.3502 21.8869L23.5113 21.6841C24.6675 19.885 21.6754 16.5734 22.8316 14.7766C23.156 14.2732 21.6909 10.295 20.5744 10.1156C19.5815 9.95711 19.6234 10.2601 18.6614 10.4815C18.5615 10.0414 18.4064 9.61738 18.2002 9.22067C18.2551 9.66273 18.2424 10.1112 18.1627 10.549C17.8207 10.563 17.5516 10.3329 17.1874 10.2741C14.864 9.89885 15.1001 7.24443 15.7466 6.40311C16.3953 5.56414 18.5488 5.31244 19.5418 5.03976C19.6322 4.94655 19.8374 5.00481 19.9279 4.91625C21.8308 3.07691 24.3758 2.7723 26.666 3.58754C29.1084 4.45693 30.6312 6.13959 31.4127 8.7336L31.6369 10.8095C31.838 11.4769 31.585 14.5826 31.4127 15.259C30.743 17.8882 29.3168 16.5757 27.0019 19.2674Z" fill="#2F2E41"/>
<path d="M34.9038 46.3857L34.6905 28.8355C34.6794 28.092 34.3919 27.3829 33.8902 26.8612C33.3884 26.3396 32.7126 26.0472 32.0085 26.0472H32.0085C31.6443 26.0472 31.2839 26.1256 30.9493 26.2775C30.6147 26.4294 30.3129 26.6517 30.0622 26.9308C29.8116 27.21 29.6174 27.5401 29.4916 27.9011C29.3657 28.2621 29.3107 28.6463 29.33 29.0305L30.0808 47.2537L30.095 58.3471C29.6526 58.5453 29.2786 58.8826 29.0239 59.3131C28.7692 59.7436 28.6461 60.2465 28.6715 60.7534C28.6968 61.2604 28.8693 61.7468 29.1655 62.1466C29.4616 62.5464 29.8672 62.8402 30.327 62.9881C30.7867 63.136 31.2785 63.1308 31.7354 62.9733C32.1923 62.8157 32.5922 62.5134 32.8807 62.1074C33.1693 61.7015 33.3326 61.2115 33.3483 60.7041C33.3641 60.1968 33.2315 59.6966 32.9688 59.2715L34.9038 46.3857Z" fill="#FFB6B6"/>
<path d="M62.8738 69.0916C62.8738 69.0916 62.5439 75.3597 62.3923 78.9345H51.0324C50.7986 75.6812 50.7198 73.2911 50.7198 73.2911L50.0983 78.9345H38.6157L37.9038 68.4828L41.344 59.4761C41.344 59.4761 59.9869 58.1105 61.7163 59.8429C63.4444 61.5741 62.8738 69.0916 62.8738 69.0916Z" fill="#2F2E41"/>
<path d="M52.8284 16.3639C56.2554 16.3639 59.0335 13.4297 59.0335 9.81013C59.0335 6.19058 56.2554 3.25635 52.8284 3.25635C49.4014 3.25635 46.6233 6.19058 46.6233 9.81013C46.6233 13.4297 49.4014 16.3639 52.8284 16.3639Z" fill="#FFB6B6"/>
<path d="M60.0611 7.68048C59.4237 7.98743 59.0108 10.2105 58.5098 9.69369C58.0089 9.17687 58.0423 8.50431 57.3669 8.31358C56.8215 8.1589 56.2346 8.33568 55.7371 8.61449C55.6483 8.66369 55.5622 8.71718 55.4782 8.77038C55.4228 8.73128 55.3677 8.69449 55.3085 8.66055C54.8635 8.40903 54.3441 8.34733 53.8574 8.48815C54.242 8.62422 54.5764 8.88456 54.8133 9.23235C54.6468 9.3502 54.4781 9.46835 54.3057 9.57304C52.8645 10.4514 50.8139 8.54141 49.2969 7.82387C50.2471 9.7071 49.7792 10.487 48.9542 12.4347L48.9257 12.5456C48.9726 12.0575 47.5424 11.6937 47.6254 12.3808C47.6843 12.8687 48.084 13.9532 48.3079 14.3839C46.713 12.4362 45.6231 10.0526 45.8531 7.59385C45.9032 7.07734 45.8881 6.53235 46.1403 6.08405C46.3928 5.63806 46.9193 5.32508 47.385 5.49515C47.3455 4.71102 47.508 3.93024 47.8551 3.23583C48.2022 2.54143 48.721 1.95934 49.3563 1.55147C49.9916 1.1436 50.7197 0.925175 51.4631 0.919428C52.2066 0.913681 52.9376 1.12082 53.5785 1.51883C54.174 1.88791 54.6712 2.4099 55.217 2.86015C55.7628 3.31041 56.392 3.70288 57.0841 3.74005C57.5232 3.76242 58.001 3.6492 58.3782 3.88938C58.8151 4.16808 58.8899 4.75158 58.9555 5.31305C58.5658 5.35363 58.1963 5.51601 57.8944 5.77945C58.2977 5.73601 58.7036 5.82797 59.0545 6.04227C59.0612 6.04545 59.0675 6.04927 59.0735 6.05367C59.3046 6.9816 59.2809 7.1873 60.0611 7.68048Z" fill="#2F2E41"/>
<path d="M38.6433 62.6469C43.9275 56.1141 42.1426 47.8049 40.0454 39.4173L40.4445 27.0261C40.464 26.4183 40.6218 25.8244 40.9044 25.2945C41.1871 24.7646 41.5863 24.3144 42.0683 23.9817L47.4628 20.2595L49.5624 17.0532L55.35 17.6645L58.5594 21.2493L62.1119 24.1137C63.0039 24.833 63.6826 25.8065 64.068 26.9197C64.4534 28.0329 64.5294 29.2392 64.2871 30.3965L60.8875 46.6347C60.8875 46.6347 62.3094 55.0526 61.4418 55.9823C60.5742 56.912 58.3387 55.9828 60.1115 57.0265C62.239 58.2789 64.1734 58.0478 63.0968 59.1849C62.0201 60.322 63.3827 61.903 63.3827 61.903L38.6433 62.6469Z" fill="#3FBF77"/>
<path d="M40.9024 72.1412L41.7834 65.5124L38.2683 64.4525L37.573 71.4959C37.2821 71.7776 37.0714 72.1395 36.9645 72.5408C36.8576 72.942 36.8589 73.3669 36.9681 73.7674C37.0772 74.168 37.2901 74.5285 37.5826 74.8083C37.8751 75.0882 38.2357 75.2763 38.6239 75.3515C39.0121 75.4268 39.4125 75.3861 39.78 75.2342C40.1476 75.0823 40.4677 74.8251 40.7044 74.4916C40.9412 74.158 41.0851 73.7614 41.1201 73.3461C41.1551 72.9309 41.0797 72.5136 40.9024 72.1412Z" fill="#FFB6B6"/>
<path d="M47.5947 21.4545C47.5947 21.4545 37.5893 24.8939 37.3507 27.4105C37.1121 29.9271 37.1912 31.4676 36.1353 41.5379L36.1909 68.6645C36.1909 68.6645 42.8989 70.1814 42.211 68.5596C41.523 66.9377 41.7631 66.1747 41.7631 66.1747C41.7631 66.1747 43.2013 65.5752 42.8413 63.6709C42.4812 61.7666 44.2867 52.3295 44.2867 52.3295L45.4262 35.4044L47.5947 21.4545Z" fill="#3FBF77"/>
<path d="M59.9315 71.7902L59.4626 65.1147L63.0358 64.2998L63.2937 71.3761C63.5665 71.6773 63.7544 72.053 63.8362 72.4608C63.918 72.8686 63.8905 73.2924 63.7568 73.6846C63.623 74.0768 63.3884 74.4218 63.0791 74.6808C62.7699 74.9399 62.3984 75.1027 62.0064 75.151C61.6144 75.1992 61.2174 75.1311 60.86 74.9541C60.5027 74.7771 60.1992 74.4984 59.9836 74.1492C59.768 73.8 59.6489 73.3943 59.6397 72.9775C59.6305 72.5608 59.7315 72.1496 59.9314 71.7902H59.9315Z" fill="#FFB6B6"/>
<path d="M56.3906 20.7498C56.3906 20.7498 66.1618 24.8726 66.2441 27.4002C66.3264 29.9279 66.1521 31.4597 66.5826 41.5814L64.8483 68.6461C64.8483 68.6461 58.0608 69.6967 58.8476 68.1258C59.6345 66.5549 59.4422 65.7769 59.4422 65.7769C59.4422 65.7769 58.0441 65.0795 58.5212 63.2041C58.9983 61.3287 57.7808 51.7871 57.7808 51.7871L57.6912 34.8196L56.3906 20.7498Z" fill="#3FBF77"/>
<path d="M59.6177 28.5516C59.4235 28.5519 59.2374 28.6172 59.1003 28.7333C58.9632 28.8494 58.8863 29.0068 58.8865 29.1708C58.8867 29.3348 58.9639 29.492 59.1013 29.6079C59.2387 29.7238 59.4249 29.7889 59.6191 29.7888C59.8132 29.7887 59.9994 29.7235 60.1366 29.6075C60.2738 29.4915 60.3509 29.3342 60.3509 29.1702V29.169C60.3505 29.005 60.2731 28.8478 60.1356 28.7321C59.9981 28.6163 59.8118 28.5514 59.6177 28.5516ZM57.2022 29.9804C57.0735 29.9811 56.9427 29.9871 56.82 30.0132C56.7391 30.0305 56.6608 30.059 56.6101 30.1033C56.5463 30.1588 56.5381 30.234 56.5692 30.2982C56.597 30.3548 56.6718 30.3973 56.7551 30.4216C56.9343 30.4734 57.1335 30.4844 57.322 30.5171C57.3567 30.5243 57.3952 30.5322 57.4167 30.5522C57.439 30.5761 57.4258 30.6089 57.3892 30.6239C57.328 30.6502 57.2498 30.6504 57.1785 30.6495C57.1134 30.6472 57.0419 30.6426 56.9901 30.615C56.952 30.5952 56.9453 30.5615 56.9539 30.5326L56.5337 30.5326C56.5326 30.5866 56.545 30.643 56.5919 30.6894C56.631 30.729 56.6943 30.7569 56.7624 30.7738C56.871 30.8008 56.9888 30.8089 57.1047 30.8114C57.262 30.8136 57.4223 30.8097 57.5734 30.7795C57.6634 30.761 57.7519 30.731 57.8095 30.6824C57.9119 30.5956 57.8878 30.4581 57.7517 30.3906C57.6839 30.3573 57.6028 30.3366 57.52 30.3233C57.399 30.3021 57.2758 30.2865 57.1532 30.2695C57.1101 30.2624 57.0646 30.2561 57.0284 30.2389C56.9905 30.2217 56.9875 30.1813 57.0261 30.1636C57.076 30.1398 57.1425 30.14 57.2022 30.1399C57.2652 30.1408 57.3336 30.1442 57.3855 30.1691C57.4145 30.1828 57.4261 30.2059 57.4264 30.228L57.8258 30.2272C57.8242 30.1844 57.8149 30.14 57.7779 30.1031C57.735 30.0577 57.6595 30.029 57.5819 30.0123C57.4601 29.9863 57.33 29.9809 57.2022 29.9804L57.2022 29.9804ZM58.0685 30.006L58.0683 30.812L59.2327 30.812L59.2326 30.6363H58.4954V30.4798H59.1529V30.3081H58.4954L58.4952 30.1797L59.2061 30.1796L59.2057 30.006L58.0685 30.006ZM59.987 30.0062C59.987 30.0062 59.6272 30.0063 59.4473 30.0063L59.4472 30.8124L59.8561 30.8125L59.8558 30.27L60.4158 30.812L60.9769 30.8124L60.9767 30.0063L60.5676 30.0064L60.5681 30.545L59.987 30.0062ZM61.7059 30.0076C61.7059 30.0076 61.2652 30.5453 61.0437 30.8138L61.4728 30.8138L61.5758 30.6684H62.2388L62.3349 30.8139L62.8115 30.8138L62.1799 30.0077L61.7059 30.0076ZM61.9203 30.2L62.1238 30.492L61.7032 30.4925L61.9203 30.2ZM56.1975 31.04L56.2012 31.4788L58.1421 31.4729C58.2411 31.4909 58.2986 31.5454 58.2784 31.6691L57.0846 33.4345L57.4735 33.7417L59.3225 31.04L56.1975 31.04ZM59.9012 31.0437L61.7195 33.7339L62.1213 33.4288L60.9137 31.668C60.8934 31.5439 60.9509 31.4888 61.0499 31.4708L62.9913 31.4766L62.9908 31.0451L59.9012 31.0437ZM59.5945 31.4889L57.8894 33.9614L58.3423 34.1479L59.4801 32.5233C59.5193 32.4962 59.559 32.4818 59.5987 32.4805C59.6405 32.4791 59.6829 32.4922 59.7253 32.5202L60.8605 34.1497L61.3277 33.9438L59.5945 31.4889Z" fill="white"/>
<g clip-path="url(#clip1_167_204)">
<path d="M86.22 30.83C86.0818 30.8301 85.9493 30.8771 85.8517 30.9607C85.7541 31.0442 85.6994 31.1574 85.6995 31.2754C85.6996 31.3933 85.7546 31.5065 85.8524 31.5898C85.9502 31.6732 86.0828 31.72 86.221 31.7199C86.3592 31.7199 86.4917 31.673 86.5894 31.5895C86.6871 31.5061 86.742 31.3929 86.742 31.2749V31.2741C86.7417 31.1561 86.6865 31.043 86.5887 30.9598C86.4908 30.8765 86.3582 30.8298 86.22 30.83ZM84.5006 31.8578C84.409 31.8583 84.3158 31.8626 84.2285 31.8814C84.171 31.8938 84.1152 31.9143 84.0791 31.9462C84.0337 31.9861 84.0278 32.0402 84.05 32.0864C84.0698 32.1271 84.123 32.1577 84.1823 32.1751C84.3099 32.2125 84.4517 32.2204 84.5858 32.2439C84.6106 32.249 84.638 32.2547 84.6533 32.2692C84.6692 32.2863 84.6597 32.3099 84.6337 32.3207C84.5901 32.3396 84.5344 32.3398 84.4837 32.3391C84.4373 32.3375 84.3865 32.3342 84.3496 32.3143C84.3225 32.3001 84.3177 32.2758 84.3238 32.255L84.0247 32.255C84.0239 32.2939 84.0328 32.3345 84.0661 32.3678C84.094 32.3963 84.139 32.4164 84.1875 32.4285C84.2648 32.4479 84.3486 32.4538 84.4311 32.4556C84.5431 32.4572 84.6573 32.4543 84.7648 32.4327C84.8289 32.4193 84.8919 32.3978 84.9329 32.3628C85.0058 32.3003 84.9886 32.2014 84.8917 32.1529C84.8435 32.1289 84.7857 32.114 84.7268 32.1044C84.6407 32.0892 84.5529 32.078 84.4657 32.0657C84.435 32.0606 84.4026 32.0561 84.3769 32.0438C84.3499 32.0314 84.3477 32.0023 84.3752 31.9896C84.4107 31.9725 84.4581 31.9726 84.5006 31.9725C84.5454 31.9732 84.5941 31.9756 84.631 31.9935C84.6517 32.0034 84.66 32.02 84.6602 32.0359L84.9444 32.0353C84.9433 32.0046 84.9367 31.9726 84.9103 31.9461C84.8798 31.9134 84.8261 31.8928 84.7708 31.8807C84.6841 31.862 84.5915 31.8582 84.5006 31.8578L84.5006 31.8578ZM85.1172 31.8762L85.1171 32.456L85.946 32.456L85.9459 32.3296H85.4211V32.2171H85.8892V32.0935H85.4211L85.421 32.0012L85.927 32.0011L85.9267 31.8762L85.1172 31.8762ZM86.4829 31.8764C86.4829 31.8764 86.2268 31.8764 86.0987 31.8764L86.0987 32.4563L86.3897 32.4563L86.3895 32.0661L86.7881 32.456L87.1875 32.4563L87.1874 31.8764L86.8962 31.8765L86.8965 32.2639L86.4829 31.8764ZM87.7064 31.8773C87.7064 31.8773 87.3927 32.2642 87.2351 32.4573L87.5406 32.4573L87.6138 32.3527H88.0858L88.1542 32.4574L88.4935 32.4573L88.0439 31.8774L87.7064 31.8773ZM87.8591 32.0158L88.0039 32.2258L87.7045 32.2262L87.8591 32.0158ZM83.7854 32.62L83.788 32.9357L85.1697 32.9315C85.2401 32.9444 85.281 32.9836 85.2666 33.0726L84.4168 34.3426L84.6937 34.5636L86.0099 32.62L83.7854 32.62ZM86.4218 32.6227L87.7162 34.558L88.0022 34.3385L87.1425 33.0718C87.1281 32.9825 87.1691 32.9429 87.2395 32.9299L88.6214 32.9341L88.6211 32.6237L86.4218 32.6227ZM86.2035 32.943L84.9897 34.7217L85.3121 34.8558L86.122 33.6871C86.1499 33.6676 86.1782 33.6573 86.2065 33.6563C86.2363 33.6553 86.2664 33.6647 86.2966 33.6849L87.1047 34.8571L87.4372 34.709L86.2035 32.943Z" fill="black"/>
</g>
</g>
<defs>
<clipPath id="clip0_167_204">
<rect width="97" height="78" fill="white" transform="translate(0.715088 0.934448)"/>
</clipPath>
<clipPath id="clip1_167_204">
<rect width="4.90661" height="4.10526" fill="white" transform="translate(83.75 30.7909)"/>
</clipPath>
</defs>
</svg>
